{
  "accessors": [
    {
      "bufferView": 2,
      "componentType": 5126,
      "count": 1444,
      "max": [
        45.37990188598633,
        -488.66229248046875,
        56.76530075073242
      ],
      "min": [
        -45.40570068359375,
        -677.0087280273438,
        0.13619999587535858
      ],
      "type": "VEC3"
    },
    {
      "bufferView": 2,
      "byteOffset": 17328,
      "componentType": 5126,
      "count": 1444,
      "max": [
        1.0,
        1.0,
        0.999994158744812
      ],
      "min": [
        -1.0,
        -0.9978658556938171,
        -0.9999794960021973
      ],
      "type": "VEC3"
    },
    {
      "bufferView": 1,
      "componentType": 5126,
      "count": 1444,
      "max": [
        0.9908999800682068,
        0.9837999939918518
      ],
      "min": [
        0.011900000274181366,
        0.007699999958276749
      ],
      "type": "VEC2"
    },
    {
      "bufferView": 0,
      "componentType": 5125,
      "count": 5508,
      "type": "SCALAR"
    }
  ],
  "asset": {
    "extras": {
      "author": "slowpoly (https://sketchfab.com/slowpoly)",
      "license": "CC-BY-4.0 (http://creativecommons.org/licenses/by/4.0/)",
      "source": "https://sketchfab.com/3d-models/ford-mustang-gt500-eleanor-2015-7ba62633c8124306970d8929c71667df",
      "title": "Ford Mustang GT500 Eleanor 2015"
    },
    "generator": "Sketchfab-16.28.0",
    "version": "2.0"
  },
  "bufferViews": [
    {
      "buffer": 0,
      "byteLength": 22032,
      "name": "floatBufferViews",
      "target": 34963
    },
    {
      "buffer": 0,
      "byteLength": 11552,
      "byteOffset": 22032,
      "byteStride": 8,
      "name": "floatBufferViews",
      "target": 34962
    },
    {
      "buffer": 0,
      "byteLength": 34656,
      "byteOffset": 33584,
      "byteStride": 12,
      "name": "floatBufferViews",
      "target": 34962
    }
  ],
  "buffers": [
    {
      "byteLength": 68240,
      "uri": "scene.bin"
    }
  ],
  "extensionsUsed": [
    "KHR_materials_specular"
  ],
  "images": [
    {
      "uri": "textures/ford_mustang_Standard_00CD12_baseColor.png"
    }
  ],
  "materials": [
    {
      "doubleSided": true,
      "emissiveFactor": [
        0.35,
        0.35,
        0.35
      ],
      "emissiveTexture": {
        "index": 0
      },
      "extensions": {
        "KHR_materials_specular": {
          "specularColorFactor": [
            1.0,
            1.0,
            1.0
          ],
          "specularFactor": 0.07771452255854494
        }
      },
      "name": "ford_mustang_Standard_00CD12",
      "pbrMetallicRoughness": {
        "baseColorTexture": {
          "index": 0
        },
        "metallicFactor": 0.0,
        "roughnessFactor": 0.6
      }
    }
  ],
  "meshes": [
    {
      "name": "Object_0",
      "primitives": [
        {
          "attributes": {
            "NORMAL": 1,
            "POSITION": 0,
            "TEXCOORD_0": 2
          },
          "indices": 3,
          "material": 0,
          "mode": 4
        }
      ]
    }
  ],
  "nodes": [
    {
      "children": [
        1
      ],
      "matrix": [
        1.0,
        0.0,
        0.0,
        0.0,
        0.0,
        2.220446049250313e-16,
        -1.0,
        0.0,
        0.0,
        1.0,
        2.220446049250313e-16,
        0.0,
        0.0,
        0.0,
        0.0,
        1.0
      ],
      "name": "Sketchfab_model"
    },
    {
      "children": [
        2
      ],
      "name": "f99b0967774e4d4099718062f67fe459.obj.cleaner.materialmerger.gles"
    },
    {
      "mesh": 0,
      "name": "Object_2"
    }
  ],
  "samplers": [
    {
      "magFilter": 9729,
      "minFilter": 9987,
      "wrapS": 10497,
      "wrapT": 10497
    }
  ],
  "scene": 0,
  "scenes": [
    {
      "name": "Sketchfab_Scene",
      "nodes": [
        0
      ]
    }
  ],
  "textures": [
    {
      "sampler": 0,
      "source": 0
    }
  ]
}
